<svg width="24" height="24" viewBox="0 0 24 24" fill="none" xmlns="http://www.w3.org/2000/svg">
<path fill-rule="evenodd" clip-rule="evenodd" d="M12.5965 12.8588C13.1013 12.354 13.837 12.1565 14.5267 12.3407C15.867 12.6986 17.3477 12.3502 18.3929 11.3051C19.1094 10.5886 19.4982 9.66647 19.557 8.72677L19.1 9.18372C17.9284 10.3553 16.0289 10.3553 14.8574 9.18372C13.6858 8.01214 13.6858 6.11265 14.8574 4.94108L15.3143 4.48413C14.3746 4.54286 13.4525 4.9317 12.736 5.6482C11.6909 6.69333 11.3424 8.17404 11.7004 9.51434C11.8846 10.2041 11.6871 10.9397 11.1823 11.4446L5.66496 16.9619C5.27444 17.3524 5.27444 17.9856 5.66496 18.3761C6.05549 18.7666 6.68865 18.7666 7.07918 18.3761L12.5965 12.8588ZM14.0107 14.273C16.0124 14.8076 18.2367 14.2896 19.8071 12.7193C21.6175 10.9089 22.0291 8.22937 21.042 6.02377C20.7893 5.45935 20.0572 5.39811 19.6199 5.83537L17.6858 7.7695C17.2953 8.16003 16.6621 8.16003 16.2716 7.7695C15.8811 7.37898 15.8811 6.74581 16.2716 6.35529L18.2057 4.42116C18.643 3.9839 18.5817 3.25175 18.0173 2.99913C15.8117 2.01196 13.1322 2.42358 11.3218 4.23398C9.75144 5.80436 9.23353 8.02865 9.76809 10.0304L4.25075 15.5477C3.07918 16.7193 3.07918 18.6188 4.25075 19.7903C5.42232 20.9619 7.32182 20.9619 8.49339 19.7903L14.0107 14.273Z" fill="#6F767E"/>
</svg>
