<svg width="24" height="24" viewBox="0 0 24 24" fill="none" xmlns="http://www.w3.org/2000/svg">
<path fill-rule="evenodd" clip-rule="evenodd" d="M6 4C5.44772 4 5 4.44772 5 5V19C5 19.5523 5.44772 20 6 20H18C18.5523 20 19 19.5523 19 19V12C19 11.4477 19.4477 11 20 11C20.5523 11 21 11.4477 21 12V19C21 20.6569 19.6569 22 18 22H6C4.34315 22 3 20.6569 3 19V5C3 3.34315 4.34315 2 6 2H12C12.5523 2 13 2.44772 13 3C13 3.55228 12.5523 4 12 4H6Z" fill="#6F767E"/>
<path fill-rule="evenodd" clip-rule="evenodd" d="M8.06437 11.6638C7.91137 11.8168 7.81213 12.0153 7.78153 12.2295L7.31012 15.5293C7.21584 16.1892 7.78153 16.7549 8.44149 16.6607L11.7413 16.1892C11.9555 16.1587 12.154 16.0594 12.307 15.9064L19.8495 8.36393C21.0211 7.19236 21.0211 5.29287 19.8495 4.12129C18.6779 2.94972 16.7784 2.94972 15.6068 4.12129L8.06437 11.6638ZM16.3139 9.07104L11.1285 14.2565L9.47858 14.4922L9.71429 12.8423L14.8997 7.65683L16.3139 9.07104ZM17.7282 7.65683L16.3139 6.24262L17.0211 5.53551C17.4116 5.14498 18.0447 5.14498 18.4353 5.53551C18.8258 5.92603 18.8258 6.5592 18.4353 6.94972L17.7282 7.65683Z" fill="#6F767E"/>
</svg>
