<svg viewBox="0 0 24 24" fill="none" xmlns="http://www.w3.org/2000/svg">
<path fill-rule="evenodd" clip-rule="evenodd" d="M12 16C14.2091 16 16 14.2091 16 12C16 9.79086 14.2091 8 12 8C9.79086 8 8 9.79086 8 12C8 14.2091 9.79086 16 12 16ZM18 12C18 15.3137 15.3137 18 12 18C8.68629 18 6 15.3137 6 12C6 8.68629 8.68629 6 12 6C15.3137 6 18 8.68629 18 12Z" fill="#6F767E"/>
<path fill-rule="evenodd" clip-rule="evenodd" d="M11.9951 2C12.5474 2 12.9951 2.44772 12.9951 3V4C12.9951 4.55228 12.5474 5 11.9951 5C11.4428 5 10.9951 4.55228 10.9951 4V3C10.9951 2.44772 11.4428 2 11.9951 2Z" fill="#6F767E"/>
<path fill-rule="evenodd" clip-rule="evenodd" d="M11.9951 18.9996C12.5474 18.9996 12.9951 19.4473 12.9951 19.9996V20.9964C12.9951 21.5487 12.5474 21.9964 11.9951 21.9964C11.4428 21.9964 10.9951 21.5487 10.9951 20.9964V19.9996C10.9951 19.4473 11.4428 18.9996 11.9951 18.9996Z" fill="#6F767E"/>
<path fill-rule="evenodd" clip-rule="evenodd" d="M4.92586 4.92839C5.31638 4.53787 5.94955 4.53787 6.34007 4.92839L7.20454 5.79286C7.59507 6.18339 7.59507 6.81655 7.20454 7.20708C6.81402 7.5976 6.18085 7.5976 5.79033 7.20708L4.92586 6.3426C4.53533 5.95208 4.53533 5.31892 4.92586 4.92839Z" fill="#6F767E"/>
<path fill-rule="evenodd" clip-rule="evenodd" d="M16.7931 16.796C17.1836 16.4055 17.8168 16.4055 18.2073 16.796L19.0651 17.6538C19.4556 18.0444 19.4556 18.6775 19.0651 19.0681C18.6745 19.4586 18.0414 19.4586 17.6509 19.068L16.793 18.2102C16.4025 17.8197 16.4025 17.1865 16.7931 16.796Z" fill="#6F767E"/>
<path fill-rule="evenodd" clip-rule="evenodd" d="M1.99707 11.9982C1.99707 11.4459 2.44479 10.9982 2.99707 10.9982H3.99707C4.54936 10.9982 4.99707 11.4459 4.99707 11.9982C4.99707 12.5505 4.54936 12.9982 3.99707 12.9982H2.99707C2.44479 12.9982 1.99707 12.5505 1.99707 11.9982Z" fill="#6F767E"/>
<path fill-rule="evenodd" clip-rule="evenodd" d="M18.9961 11.9982C18.9961 11.4459 19.4438 10.9982 19.9961 10.9982H20.9929C21.5452 10.9982 21.9929 11.4459 21.9929 11.9982C21.9929 12.5505 21.5452 12.9982 20.9929 12.9982H19.9961C19.4438 12.9982 18.9961 12.5505 18.9961 11.9982Z" fill="#6F767E"/>
<path fill-rule="evenodd" clip-rule="evenodd" d="M4.92571 19.068C4.53518 18.6775 4.53518 18.0444 4.92571 17.6538L5.78664 16.7929C6.17716 16.4024 6.81033 16.4024 7.20085 16.7929C7.59137 17.1834 7.59137 17.8166 7.20085 18.2071L6.33992 19.068C5.9494 19.4586 5.31623 19.4586 4.92571 19.068Z" fill="#6F767E"/>
<path fill-rule="evenodd" clip-rule="evenodd" d="M16.786 7.20711C16.3955 6.81658 16.3955 6.18341 16.7861 5.7929L17.6506 4.9284C18.0411 4.53789 18.6743 4.5379 19.0648 4.92843C19.4553 5.31896 19.4553 5.95212 19.0648 6.34264L18.2002 7.20714C17.8097 7.59765 17.1765 7.59764 16.786 7.20711Z" fill="#6F767E"/>
</svg>
