<svg width="24" height="24" viewBox="0 0 24 24" fill="none" xmlns="http://www.w3.org/2000/svg">
<path fill-rule="evenodd" clip-rule="evenodd" d="M12.0001 17C16.1121 17 18.5866 13.933 19.6831 12.1047C19.7081 12.063 19.715 12.0278 19.715 12C19.715 11.9722 19.7081 11.937 19.6831 11.8953C18.5866 10.067 16.1121 7 12.0001 7C7.88802 7 5.41349 10.067 4.31706 11.8953C4.29201 11.937 4.28516 11.9722 4.28516 12C4.28516 12.0278 4.29201 12.063 4.31706 12.1047C5.41349 13.933 7.88801 17 12.0001 17ZM21.3983 13.1334C20.21 15.1148 17.2151 19 12.0001 19C6.78504 19 3.79014 15.1148 2.60186 13.1334C2.17959 12.4292 2.17959 11.5708 2.60186 10.8666C3.79014 8.88521 6.78504 5 12.0001 5C17.2151 5 20.21 8.88521 21.3983 10.8666C21.8205 11.5708 21.8205 12.4292 21.3983 13.1334Z" fill="#6F767E"/>
<path fill-rule="evenodd" clip-rule="evenodd" d="M12 13C12.5523 13 13 12.5523 13 12C13 11.4477 12.5523 11 12 11C11.4477 11 11 11.4477 11 12C11 12.5523 11.4477 13 12 13ZM12 15C13.6569 15 15 13.6569 15 12C15 10.3431 13.6569 9 12 9C10.3431 9 9 10.3431 9 12C9 13.6569 10.3431 15 12 15Z" fill="#6F767E"/>
</svg>
